<svg width="192" height="192" viewBox="0 0 192 192" xmlns="http://www.w3.org/2000/svg" role="img" aria-label="MyAudioG icon">
  <rect width="100%" height="100%" rx="24" fill="#0f172a" />
  <!-- Map pin with headphone motif -->
  <g transform="translate(46 36)">
    <path d="M50 0C28.9 0 11 17.9 11 39c0 24.4 34 66 39 73.1 0.8 1 2.4 1 3.2 0C55 105 89 63.4 89 39 89 17.9 71.1 0 50 0z" fill="#10b981"/>
    <circle cx="50" cy="39" r="13" fill="#ecfccb"/>
    <!-- Headphone arc -->
    <path d="M14 42c-2 0-4 2-4 4v8c0 6 6 10 12 10h4V54c0-5-4-12-12-12z" fill="#fff" opacity="0.95" transform="translate(-2 -4)"/>
    <path d="M86 42c2 0 4 2 4 4v8c0 6-6 10-12 10h-4V54c0-5 4-12 12-12z" fill="#fff" opacity="0.95" transform="translate(-2 -4)"/>
  </g>
  <!-- text -->
  <text x="50%" y="166" font-family="Inter, Roboto, Helvetica, Arial, sans-serif" font-size="20" fill="#e6f4ea" text-anchor="middle">myaudioG</text>
</svg>