<svg width="512" height="512" viewBox="0 0 512 512" xmlns="http://www.w3.org/2000/svg" role="img" aria-label="MyAudioG icon">
  <rect width="100%" height="100%" rx="64" fill="#071330" />
  <g transform="translate(128 128)">
    <!-- Larger pin + headphones -->
    <path d="M192 0C150.6 0 118 32.6 118 74c0 46.4 64.7 125.7 74 138.9 1.6 2 4.8 2 6.4 0C210.3 199.7 275 120.4 275 74 275 32.6 242.4 0 201 0z" fill="#06b57d"/>
    <circle cx="201" cy="74" r="30" fill="#f0ffef"/>
    <!-- left headphone -->
    <path d="M48 80c-4 0-8 3-8 6v12c0 18 18 30 36 30h12V110c0-18-14-42-40-42z" fill="#ffffff" transform="translate(-30 -18)"/>
    <!-- right headphone -->
    <path d="M354 80c4 0 8 3 8 6v12c0 18-18 30-36 30h-12V110c0-18 14-42 40-42z" fill="#ffffff" transform="translate(-30 -18)"/>
  </g>
  <text x="50%" y="464" font-family="Inter, Roboto, Helvetica, Arial, sans-serif" font-size="48" fill="#dfffe9" text-anchor="middle">myaudioG</text>
</svg>